<svg xmlns="http://www.w3.org/2000/svg" viewBox="0 0 480 200" fill="none">
  <style>text { font-family: system-ui, -apple-system, sans-serif; }</style>
  <text x="240" y="18" text-anchor="middle" font-size="11" font-weight="700" fill="#e2e2e2">Map-reduce summarization</text>

  <rect x="175" y="32" width="130" height="30" rx="4" fill="#f59e0b" opacity="0.3" stroke="#f59e0b" stroke-width="1"/>
  <text x="240" y="51" text-anchor="middle" font-size="8" font-weight="600" fill="#fef3c7">10 RAG documents</text>

  <text x="240" y="78" text-anchor="middle" font-size="10" fill="#64748b">&#x25BC; split into chunks</text>

  <rect x="20" y="88" width="130" height="30" rx="4" fill="#4a6cf7" opacity="0.3" stroke="#4a6cf7" stroke-width="1"/>
  <text x="85" y="107" text-anchor="middle" font-size="8" fill="#a5b4fc">Chunk 1 (docs 1-3)</text>

  <rect x="175" y="88" width="130" height="30" rx="4" fill="#4a6cf7" opacity="0.3" stroke="#4a6cf7" stroke-width="1"/>
  <text x="240" y="107" text-anchor="middle" font-size="8" fill="#a5b4fc">Chunk 2 (docs 4-7)</text>

  <rect x="330" y="88" width="130" height="30" rx="4" fill="#4a6cf7" opacity="0.3" stroke="#4a6cf7" stroke-width="1"/>
  <text x="395" y="107" text-anchor="middle" font-size="8" fill="#a5b4fc">Chunk 3 (docs 8-10)</text>

  <text x="85" y="132" text-anchor="middle" font-size="8" fill="#64748b">&#x25BC; map</text>
  <text x="240" y="132" text-anchor="middle" font-size="8" fill="#64748b">&#x25BC; map</text>
  <text x="395" y="132" text-anchor="middle" font-size="8" fill="#64748b">&#x25BC; map</text>

  <rect x="20" y="138" width="130" height="24" rx="4" fill="#22c55e" opacity="0.3" stroke="#22c55e" stroke-width="1"/>
  <text x="85" y="154" text-anchor="middle" font-size="8" fill="#86efac">Summary 1</text>

  <rect x="175" y="138" width="130" height="24" rx="4" fill="#22c55e" opacity="0.3" stroke="#22c55e" stroke-width="1"/>
  <text x="240" y="154" text-anchor="middle" font-size="8" fill="#86efac">Summary 2</text>

  <rect x="330" y="138" width="130" height="24" rx="4" fill="#22c55e" opacity="0.3" stroke="#22c55e" stroke-width="1"/>
  <text x="395" y="154" text-anchor="middle" font-size="8" fill="#86efac">Summary 3</text>

  <text x="240" y="178" text-anchor="middle" font-size="8" fill="#64748b">&#x25BC; reduce (merge)</text>

  <rect x="155" y="184" width="170" height="24" rx="4" fill="#f59e0b" opacity="0.4" stroke="#f59e0b" stroke-width="1"/>
  <text x="240" y="200" text-anchor="middle" font-size="8" font-weight="600" fill="#fbbf24">Final merged summary</text>
</svg>
