<svg xmlns="http://www.w3.org/2000/svg" viewBox="0 0 500 180" fill="none">
  <style>text { font-family: system-ui, -apple-system, sans-serif; }</style>
  <text x="250" y="18" text-anchor="middle" font-size="11" font-weight="700" fill="#e2e2e2">Semantic compression (similarity filtering)</text>

  <rect x="150" y="32" width="200" height="22" rx="4" fill="#4a6cf7" opacity="0.3" stroke="#4a6cf7" stroke-width="1"/>
  <text x="250" y="47" text-anchor="middle" font-size="8" font-weight="600" fill="#a5b4fc">Anchor: "Explain the auth flow"</text>

  <text x="250" y="70" text-anchor="middle" font-size="8" fill="#64748b">cosine similarity scored against anchor</text>

  <rect x="20" y="80" width="210" height="90" rx="6" fill="#1a1a2e" stroke="#333" stroke-width="1"/>
  <text x="125" y="94" text-anchor="middle" font-size="8" font-weight="600" fill="#64748b">ALL ITEMS</text>
  <rect x="28" y="100" width="194" height="14" rx="2" fill="#22c55e" opacity="0.4"/>
  <text x="34" y="110" font-size="7.5" fill="#dcfce7">OAuth2 implementation guide</text>
  <text x="216" y="110" text-anchor="end" font-size="7.5" fill="#22c55e">0.94</text>
  <rect x="28" y="118" width="194" height="14" rx="2" fill="#22c55e" opacity="0.3"/>
  <text x="34" y="128" font-size="7.5" fill="#dcfce7">JWT token rotation</text>
  <text x="216" y="128" text-anchor="end" font-size="7.5" fill="#22c55e">0.88</text>
  <rect x="28" y="136" width="194" height="14" rx="2" fill="#ef4444" opacity="0.15"/>
  <text x="34" y="146" font-size="7.5" fill="#6b7280">Database schema v2</text>
  <text x="216" y="146" text-anchor="end" font-size="7.5" fill="#ef4444">0.41</text>
  <rect x="28" y="154" width="194" height="14" rx="2" fill="#ef4444" opacity="0.15"/>
  <text x="34" y="164" font-size="7.5" fill="#6b7280">CSS styling guide</text>
  <text x="216" y="164" text-anchor="end" font-size="7.5" fill="#ef4444">0.15</text>

  <text x="258" y="135" text-anchor="middle" font-size="14" fill="#64748b">&#x2192;</text>

  <rect x="270" y="80" width="210" height="90" rx="6" fill="#1a1a2e" stroke="#a855f7" stroke-width="1"/>
  <text x="375" y="94" text-anchor="middle" font-size="8" font-weight="600" fill="#a855f7">KEPT (relevant)</text>
  <rect x="278" y="100" width="194" height="14" rx="2" fill="#a855f7" opacity="0.4"/>
  <text x="284" y="110" font-size="7.5" fill="#e9d5ff">OAuth2 implementation guide</text>
  <text x="466" y="110" text-anchor="end" font-size="7.5" fill="#22c55e">0.94</text>
  <rect x="278" y="118" width="194" height="14" rx="2" fill="#a855f7" opacity="0.3"/>
  <text x="284" y="128" font-size="7.5" fill="#e9d5ff">JWT token rotation</text>
  <text x="466" y="128" text-anchor="end" font-size="7.5" fill="#22c55e">0.88</text>
  <text x="375" y="155" text-anchor="middle" font-size="8" fill="#64748b">Irrelevant items filtered out</text>
</svg>
