<svg xmlns="http://www.w3.org/2000/svg" viewBox="0 0 560 420" fill="none">
  <style>
    text { font-family: system-ui, -apple-system, sans-serif; }
  </style>

  <text x="260" y="28" text-anchor="middle" font-size="15" font-weight="700" fill="#e2e2e2">Without slotmux</text>
  <text x="260" y="48" text-anchor="middle" font-size="11.5" fill="#999">Everything competes for the same token budget</text>

  <rect x="80" y="68" width="360" height="280" rx="8" fill="#1a1a2e" stroke="#333" stroke-width="1.5"/>

  <text x="68" y="352" text-anchor="end" font-size="10" fill="#888" transform="rotate(-90 68 352)">Model limit (128k tokens)</text>

  <rect x="96" y="80" width="328" height="36" rx="4" fill="#4a6cf7" opacity="0.85"/>
  <text x="260" y="103" text-anchor="middle" font-size="12" font-weight="600" fill="#fff">System Prompt</text>

  <rect x="96" y="122" width="328" height="28" rx="4" fill="#22c55e" opacity="0.7"/>
  <text x="260" y="141" text-anchor="middle" font-size="11" fill="#fff">User: "Summarize this document..."</text>

  <rect x="96" y="154" width="328" height="28" rx="4" fill="#22c55e" opacity="0.6"/>
  <text x="260" y="173" text-anchor="middle" font-size="11" fill="#fff">Assistant: "Here is a summary..."</text>

  <rect x="96" y="186" width="328" height="28" rx="4" fill="#22c55e" opacity="0.5"/>
  <text x="260" y="205" text-anchor="middle" font-size="11" fill="#fff">User: "Now compare with..."</text>

  <rect x="96" y="220" width="328" height="40" rx="4" fill="#f59e0b" opacity="0.7"/>
  <text x="260" y="244" text-anchor="middle" font-size="11" fill="#fff">RAG Document #1 (3,200 tokens)</text>

  <rect x="96" y="264" width="328" height="40" rx="4" fill="#f59e0b" opacity="0.6"/>
  <text x="260" y="288" text-anchor="middle" font-size="11" fill="#fff">RAG Document #2 (2,800 tokens)</text>

  <rect x="96" y="308" width="328" height="32" rx="4" fill="#a855f7" opacity="0.65"/>
  <text x="260" y="329" text-anchor="middle" font-size="11" fill="#fff">Tool result: search_web()</text>

  <line x1="88" y1="348" x2="432" y2="348" stroke="#ef4444" stroke-width="1.5" stroke-dasharray="8 4"/>

  <rect x="80" y="352" width="360" height="64" rx="8" fill="#ef4444" opacity="0.15" stroke="#ef4444" stroke-width="1.5" stroke-dasharray="6 3"/>

  <rect x="96" y="360" width="328" height="22" rx="4" fill="#ef4444" opacity="0.3"/>
  <text x="260" y="376" text-anchor="middle" font-size="11" fill="#f87171">RAG Document #3 -- DROPPED</text>

  <rect x="96" y="386" width="328" height="22" rx="4" fill="#ef4444" opacity="0.2"/>
  <text x="260" y="402" text-anchor="middle" font-size="11" fill="#f87171">Earlier chat messages -- LOST</text>

  <line x1="448" y1="352" x2="448" y2="416" stroke="#ef4444" stroke-width="1.5"/>
  <line x1="444" y1="352" x2="452" y2="352" stroke="#ef4444" stroke-width="1.5"/>
  <line x1="444" y1="416" x2="452" y2="416" stroke="#ef4444" stroke-width="1.5"/>
  <text x="460" y="382" font-size="10" font-weight="600" fill="#ef4444">Overflow!</text>
  <text x="460" y="396" font-size="9" fill="#f87171">Silently truncated</text>
</svg>
