<svg xmlns="http://www.w3.org/2000/svg" viewBox="0 0 440 170" fill="none">
  <style>text { font-family: system-ui, -apple-system, sans-serif; }</style>
  <text x="220" y="18" text-anchor="middle" font-size="11" font-weight="700" fill="#e2e2e2">semantic (embedding similarity)</text>
  <rect x="16" y="30" width="180" height="130" rx="6" fill="#1a1a2e" stroke="#333" stroke-width="1"/>
  <text x="106" y="44" text-anchor="middle" font-size="8" font-weight="600" fill="#64748b">SCORED ITEMS</text>
  <rect x="24" y="50" width="164" height="18" rx="3" fill="#a855f7" opacity="0.55"/>
  <text x="30" y="63" font-size="8" fill="#e9d5ff">weather API result</text>
  <text x="182" y="63" text-anchor="end" font-size="8" fill="#22c55e">0.92</text>
  <rect x="24" y="72" width="164" height="18" rx="3" fill="#a855f7" opacity="0.15"/>
  <text x="30" y="85" font-size="8" fill="#6b7280">stock prices</text>
  <text x="182" y="85" text-anchor="end" font-size="8" fill="#ef4444">0.31</text>
  <rect x="24" y="94" width="164" height="18" rx="3" fill="#a855f7" opacity="0.45"/>
  <text x="30" y="107" font-size="8" fill="#e9d5ff">temperature converter</text>
  <text x="182" y="107" text-anchor="end" font-size="8" fill="#22c55e">0.85</text>
  <rect x="24" y="116" width="164" height="18" rx="3" fill="#a855f7" opacity="0.15"/>
  <text x="30" y="129" font-size="8" fill="#6b7280">news headlines</text>
  <text x="182" y="129" text-anchor="end" font-size="8" fill="#ef4444">0.22</text>
  <text x="106" y="152" text-anchor="middle" font-size="8" fill="#64748b">threshold: 0.7</text>
  <text x="220" y="100" text-anchor="middle" font-size="16" fill="#64748b">&#x2192;</text>
  <rect x="244" y="30" width="180" height="130" rx="6" fill="#1a1a2e" stroke="#a855f7" stroke-width="1"/>
  <text x="334" y="44" text-anchor="middle" font-size="8" font-weight="600" fill="#a855f7">KEPT (above threshold)</text>
  <rect x="252" y="52" width="164" height="18" rx="3" fill="#a855f7" opacity="0.55"/>
  <text x="258" y="65" font-size="8" fill="#e9d5ff">weather API result</text>
  <text x="410" y="65" text-anchor="end" font-size="8" fill="#22c55e">0.92</text>
  <rect x="252" y="74" width="164" height="18" rx="3" fill="#a855f7" opacity="0.45"/>
  <text x="258" y="87" font-size="8" fill="#e9d5ff">temperature converter</text>
  <text x="410" y="87" text-anchor="end" font-size="8" fill="#22c55e">0.85</text>
  <text x="334" y="120" text-anchor="middle" font-size="8" fill="#64748b">2 items dropped (off-topic)</text>
  <text x="334" y="145" text-anchor="middle" font-size="8" fill="#64748b">anchor: "What is the weather?"</text>
</svg>
